<svg xmlns="http://www.w3.org/2000/svg" viewBox="0 0 546.2 121.3" enable-background="new 0 0 546.2 121.3" width="240" height="53">
  <style type="text/css">
    .st4{fill:#A8C357}
    .st5{fill:#6A8735}
    .st6{fill:none}
    .st7{fill:#FCEE21}
    .st8{fill:#829962}
  </style>
  <path class="st4" d="M199.1 71.9h-19.2v-3.6h42.4v3.6h-19.2v49.4h-4.1v-49.4zM281.4 121.3v-24.1h-33.8v24.1h-4.1v-53.1h4.1v25.3h33.8v-25.3h4.1v53.1h-4.1zM315.9 92.7h31v3.7h-31v20.9h33.5v3.9h-37.5v-53h36.6v3.9h-32.6v20.6zM417.3 74.1l-20.3 31.1h-1.4l-20.4-31.1v47.2h-4.1v-53.1h4.8l20.3 31 20.1-31h5v53.1h-4v-47.2zM451.8 92.7h31v3.7h-31v20.9h33.5v3.9h-37.5v-53h36.6v3.9h-32.6v20.6zM541 78.5c-3.9-6.2-10.1-7.1-16-7.2-6.2 0-16 2.3-16 10.8 0 6.8 7.3 8.3 16.2 10 10.2 2 20.8 3.8 20.8 15.3-.1 12-12.1 14.9-21 14.9-8.3 0-17.6-3.4-21.7-11.5l3.6-1.8c3.3 6.5 11.6 9.6 18.1 9.6 6.5 0 16.9-1.8 16.9-11.2.1-8-8.7-9.7-17.4-11.4-9.7-1.9-19.6-3.9-19.6-13.7-.2-11.2 11.4-14.7 20.1-14.7 7.6 0 14.2 1.2 19.4 9l-3.4 1.9z"/>
  <path class="st5" d="M222.4 44h-27.5l-4.5 10.2h-10.8l23.6-53.9h10.8l23.6 53.9h-10.8l-4.4-10.2zm-13.8-32.4l-9.8 22.9h19.6l-9.8-22.9zM286.8 26.8c.2 13.6-7.9 27.4-26.3 27.4h-20.7v-53.9h20.7c18 0 26 13.1 26.3 26.5zm-37.2 17.6h10.8c12 0 16.7-8.9 16.5-17.7-.2-8.4-5-16.8-16.5-16.8h-10.8v34.5zM326.3 44h-27.5l-4.5 10.2h-10.8l23.6-53.9h10.8l23.6 53.9h-10.8l-4.4-10.2zm-13.8-32.4l-9.8 22.9h19.6l-9.8-22.9zM368.8 38.3h-14.9v15.9h-9.9v-53.9l24.8-.1c25.7 0 25.8 38.1 0 38.1zm-14.9-9.3h14.9c12.7 0 12.6-19.1 0-19.1h-14.9v19.1zM406 9.5h-16.7v-9.2h43.3v9.2h-16.6v44.7h-10v-44.7zM436.1 54.2v-53.9h9.9v53.9h-9.9zM481.3 54.4h-10.3l-21.9-54.1h11.1l15.9 42 15.9-42h11.1l-21.8 54.1zM546 54.2h-39.4v-53.9h39.4v9.9h-29.6v12.4h28.6v9.4h-28.5v12.2h29.5v10z"/>
  <path class="st6" d="M73 69.1l.2-.2 11-19.4-11.2 19.6z"/>
  <path class="st7" d="M87.3 44.1l-3.1 5.4 3.1-5.3v-.1z"/>
  <path class="st4" d="M87.5 43.8l-23-43.8-64.5 121 73-51.9 14.5-25.3z"/>
  <path class="st8" d="M93.1 54.7l-.3.3-19.7 13.9-29.5 52.2 62.2-41.1.2-.2-12.9-25.1zM113.1 0l-25.6 43.8 5.6 10.9 50.2.1-30.2-54.8zM143.3 54.7l-37.3 25.1 21 41.5h52.9l-36.6-66.6z"/>
  <path class="st5" d="M87.5 43.8l25.6-43.8h-48.6l23 43.8zM143.4 54.7h-50.3l12.9 25.1 37.4-25.1zM73 69.1l-73 51.9h43.7l29.3-51.9z"/>
</svg>
