<svg version="1.1" id="chevrons-sprite" xmlns="http://www.w3.org/2000/svg" x="0px" y="0px" viewBox="-197 324 216 146">
  <style>
    #chevron-previous, #chevron-next {fill: rgba(255, 255, 255, 0.95)}
  </style>
  <path id="chevron-previous" d="M-149.6,397l39.6-39.6c2-2,3-4.5,3-7.4c0-2.9-1-5.4-3-7.4l-6.1-6.1c-2-2-4.5-3-7.4-3c-2.9,0-5.4,1-7.4,3l-53.1,53
  	c-2,2-3,4.5-3,7.4s1,5.4,3,7.4l53.1,53c2,2,4.5,3,7.4,3c2.9,0,5.4-1,7.4-3l6.1-6.1c2-2,3-4.5,3-7.3c0-2.9-1-5.3-3-7.4L-149.6,397z"
  	/>
  <path id="chevron-next" d="M6,389.7l-53.1-53c-2-2.1-4.4-3.1-7.3-3.1s-5.4,1-7.3,3.1l-6.2,6.1c-2,2-3,4.5-3,7.3c0,2.8,1,5.3,3,7.4l39.6,39.5L-68,436.6
  	c-2,2-3,4.5-3,7.3c0,2.8,1,5.3,3,7.4l6.2,6.1c2,2,4.5,3,7.3,3c2.9,0,5.3-1,7.3-3l53.1-53c2-2.1,3-4.6,3-7.4C9,394.1,8,391.7,6,389.7
  	z"/>
</svg>
